# xmcd
#
# Track frame offsets:
#	150
#	16394
#	37282
#	53409
#	68712
#	91144
#	108733
#	121077
#	135514
#	152811
#	168908
#	186578
#
# Disc length: 2715 seconds
#
# Revision: 0
# Processed by: cddbd v1.5.2PL0 Copyright (c) Steve Scherf et al.
# Submitted via: EZCDAudioConverter 5.5.0.1
#
DISCID=9d0a990c
DTITLE=Various Artist - La Fogata, Música para Compartir con Amigos Vol 1
DYEAR=2001
DGENRE=Chilena
TTITLE0=Sui Generis - Canción Para Mi Muerte
TTITLE1=León Gieco - Solo le Pido a Díos
TTITLE2=Los Enanitos Verdes - Tus Viejas Cartas
TTITLE3=Soda Stereo - Trátame Suavemente
TTITLE4=Los Fabulosos Cadillacs - Siguiendo la Luna
TTITLE5=Seru Giran - A cada Hombre, A cada Mujer
TTITLE6=Los Enanitos Verdes - Solo Alguien como Vos
TTITLE7=Sui Generis - Detras de las PAredes
TTITLE8=Soda Stereo - Cuando Pase el Temblor
TTITLE9=Virus - Amor Descartable
TTITLE10=León Gieco - Cachito Campeón De Corrientes
TTITLE11=La Rue Morgue - Sigues Dando Vueltas
EXTD=
EXTT0=
EXTT1=
EXTT2=
EXTT3=
EXTT4=
EXTT5=
EXTT6=
EXTT7=
EXTT8=
EXTT9=
EXTT10=
EXTT11=
PLAYORDER=
